<mxfile host="app.diagrams.net" agent="Mozilla/5.0 (Windows NT 10.0; Win64; x64) AppleWebKit/537.36 (KHTML, like Gecko) Chrome/136.0.0.0 Safari/537.36 Edg/136.0.0.0" version="26.2.14">
  <diagram id="EvjeMC12HsgBk4t1Z8cF" name="Page-1">
    <mxGraphModel dx="949" dy="540" grid="1" gridSize="10" guides="1" tooltips="1" connect="1" arrows="1" fold="1" page="1" pageScale="1" pageWidth="850" pageHeight="1100" math="0" shadow="0">
      <root>
        <mxCell id="0" />
        <mxCell id="1" parent="0" />
        <mxCell id="ym0EkMZWyknAE99nMXu0-9" style="edgeStyle=orthogonalEdgeStyle;rounded=0;orthogonalLoop=1;jettySize=auto;html=1;" edge="1" parent="1" source="ym0EkMZWyknAE99nMXu0-7" target="ym0EkMZWyknAE99nMXu0-8">
          <mxGeometry relative="1" as="geometry" />
        </mxCell>
        <mxCell id="ym0EkMZWyknAE99nMXu0-10" value="out -&amp;gt; in" style="edgeLabel;html=1;align=center;verticalAlign=middle;resizable=0;points=[];" vertex="1" connectable="0" parent="ym0EkMZWyknAE99nMXu0-9">
          <mxGeometry x="0.1167" y="1" relative="1" as="geometry">
            <mxPoint as="offset" />
          </mxGeometry>
        </mxCell>
        <mxCell id="ym0EkMZWyknAE99nMXu0-7" value="Start" style="html=1;whiteSpace=wrap;" vertex="1" parent="1">
          <mxGeometry x="330" y="310" width="110" height="50" as="geometry" />
        </mxCell>
        <mxCell id="ym0EkMZWyknAE99nMXu0-8" value="End" style="html=1;whiteSpace=wrap;" vertex="1" parent="1">
          <mxGeometry x="560" y="310" width="110" height="50" as="geometry" />
        </mxCell>
      </root>
    </mxGraphModel>
  </diagram>
</mxfile>
